<svg xmlns="http://www.w3.org/2000/svg" viewBox="0 0 260 300" width="260" height="300" fill="none" stroke="currentColor" stroke-width="2" stroke-linecap="round" stroke-linejoin="round" style="color:#B96CE6">
  <g id="compass-arcs" data-name="energy-arcs" opacity="0.55">
    <path d="M-9.08,184.46 A150 92 0 0 0 -5.95,111.12"></path>
    <path d="M265.95,111.12 A150 92 0 0 1 269.08,184.46"></path>
    <path d="M27.81,186 A118 72 0 0 0 29.93,111.85"></path>
    <path d="M230.07,111.85 A118 72 0 0 1 232.19,186"></path>
  </g>
  <g id="compass-star" data-name="eight-point-star">
    <path d="M130,25 L139.18,127.83 L171.01,108.99 L152.17,140.82 L255,150 L152.17,159.18 L171.01,191.01 L139.18,172.17 L130,275 L120.82,172.17 L88.99,191.01 L107.83,159.18 L5,150 L107.83,140.82 L88.99,108.99 L120.82,127.83 Z"></path>
    <path d="M130,150 L130,25"></path>
    <path d="M130,150 L130,275"></path>
    <path d="M130,150 L5,150"></path>
    <path d="M130,150 L255,150"></path>
  </g>
  <g id="compass-accents" data-name="tip-diamonds">
    <path d="M130,0 L137,11 L130,22 L123,11 Z"></path>
    <path d="M130,278 L137,289 L130,300 L123,289 Z"></path>
  </g>

</svg>