<svg xmlns="http://www.w3.org/2000/svg" viewBox="0 0 200 200" width="200" height="200" fill="none" stroke="currentColor" stroke-width="2" stroke-linecap="round" stroke-linejoin="round" style="color:#B96CE6">
  <g id="sun-ring" data-name="ring">
    <circle cx="100" cy="100" r="94"></circle>
    <circle cx="100" cy="100" r="88"></circle>
  </g>
  <g id="sun-rays" data-name="rays">
    <path d="M96.34,70.22 L100,20 L103.66,70.22"></path>
    <path d="M108.02,71.09 L125.26,39.02 L114.77,73.89"></path>
    <path d="M118.47,76.36 L156.57,43.43 L123.64,81.53"></path>
    <path d="M126.11,85.23 L160.98,74.74 L128.91,91.98"></path>
    <path d="M129.78,96.34 L180,100 L129.78,103.66"></path>
    <path d="M128.91,108.02 L160.98,125.26 L126.11,114.77"></path>
    <path d="M123.64,118.47 L156.57,156.57 L118.47,123.64"></path>
    <path d="M114.77,126.11 L125.26,160.98 L108.02,128.91"></path>
    <path d="M103.66,129.78 L100,180 L96.34,129.78"></path>
    <path d="M91.98,128.91 L74.74,160.98 L85.23,126.11"></path>
    <path d="M81.53,123.64 L43.43,156.57 L76.36,118.47"></path>
    <path d="M73.89,114.77 L39.02,125.26 L71.09,108.02"></path>
    <path d="M70.22,103.66 L20,100 L70.22,96.34"></path>
    <path d="M71.09,91.98 L39.02,74.74 L73.89,85.23"></path>
    <path d="M76.36,81.53 L43.43,43.43 L81.53,76.36"></path>
    <path d="M85.23,73.89 L74.74,39.02 L91.98,71.09"></path>
  </g>
  <g id="sun-gem" data-name="center-gem">
    <path d="M107.65,81.52 L118.48,92.35 L118.48,107.65 L107.65,118.48 L92.35,118.48 L81.52,107.65 L81.52,92.35 L92.35,81.52 Z"></path>
    <path d="M104.21,89.84 L110.16,95.79 L110.16,104.21 L104.21,110.16 L95.79,110.16 L89.84,104.21 L89.84,95.79 L95.79,89.84 Z"></path>
    <path d="M104.21,89.84 L107.65,81.52"></path>
    <path d="M110.16,95.79 L118.48,92.35"></path>
    <path d="M110.16,104.21 L118.48,107.65"></path>
    <path d="M104.21,110.16 L107.65,118.48"></path>
    <path d="M95.79,110.16 L92.35,118.48"></path>
    <path d="M89.84,104.21 L81.52,107.65"></path>
    <path d="M89.84,95.79 L81.52,92.35"></path>
    <path d="M95.79,89.84 L92.35,81.52"></path>
  </g>

</svg>