<?xml version="1.0" encoding="UTF-8"?>
<svg id="Layer_2" xmlns="http://www.w3.org/2000/svg" version="1.1" viewBox="0 0 300 300">
  <!-- Generator: Adobe Illustrator 29.5.0, SVG Export Plug-In . SVG Version: 2.1.0 Build 137)  -->
  <defs>
    <style>
      .st0 {
        fill: #e5b357;
      }
    </style>
  </defs>
  <path id="letter-e-01_" class="st0" d="M244.2,209c.8,0,1.4.7,1.2,1.5l-15.3,77.5H55.8c-.7,0-1.2-.5-1.2-1.2v-1.4c0-.7.6-1.2,1.2-1.2h3.2c5.9,0,10.9-2.4,15.1-7.1,4.2-4.7,6.4-10.5,6.6-17.1V46.5c-.2-6.7-2.4-12.4-6.6-17.1s-9.2-7.1-15.1-7.1h-3.2c-.7,0-1.2-.6-1.2-1.2v-1.4c0-.7.6-1.2,1.2-1.2h127.9c5,0,10.2-.4,15.8-1.2,5.5-.8,10.7-1.7,15.4-2.7,3.6-.8,6.5-1.6,8.5-2.4.8-.3,1.7.3,1.7,1.2v64.3c0,.7-.6,1.2-1.2,1.2h-.9c-.7,0-1.2-.6-1.2-1.2v-3.4c0-11.8-3.1-21.3-9.3-28.5-5.2-6-12-9.6-20.3-10.8,0,0-.1,0-.2,0h-59c-.7,0-1.2.6-1.2,1.2v109.6c0,.7.6,1.2,1.2,1.2h43.5c8.4-.3,15.2-3.5,20.7-9.8,5.4-6.3,8.1-14.2,8.1-23.7v-1.5c0-.7.6-1.2,1.2-1.2h.9c.7,0,1.2.6,1.2,1.2v86.1c0,.7-.6,1.2-1.2,1.2h-.9c-.7,0-1.2-.6-1.2-1.2v-1.9c0-9.5-2.7-17.3-8.1-23.5-5.4-6.2-12.3-9.4-20.7-9.6h-43.5c-.7,0-1.2.6-1.2,1.2v105.7c0,.7.6,1.2,1.2,1.2h43.2c11.3,0,21.2-2.5,29.8-7.5,8.6-5,15.9-12.2,22-21.6,6-9.1,10.7-20,14.3-32.4.2-.5.6-.9,1.2-.9h1,0Z"/>
</svg>