<svg xmlns="http://www.w3.org/2000/svg" viewBox="0 0 180 220">
  <rect width="180" height="220" rx="20" fill="#050208"/>
  <g transform="translate(16, 4) scale(0.16)">
    <path fill="#e5b357" d="M148.22,153.91c.6,0,1.06.55.94,1.14l-11.96,60.56H.96C.43,215.62,0,215.19,0,214.66v-1.09c0-.53.43-.96.96-.96h2.48c4.59,0,8.52-1.85,11.79-5.57,3.27-3.71,4.99-8.18,5.17-13.4V26.89c-.18-5.22-1.9-9.68-5.17-13.39-3.27-3.71-7.2-5.57-11.79-5.57H.96C.43,7.93,0,7.5,0,6.97v-1.09C0,5.35.43,4.92.96,4.92h99.96c3.88,0,7.99-.3,12.32-.9,4.32-.6,8.34-1.3,12.05-2.11,2.84-.61,5.06-1.23,6.66-1.84.62-.24,1.29.23,1.29.9v3.95s0,3.31,0,3.31v42.99c0,.53-.43.96-.96.96h-.73c-.53,0-.96-.43-.96-.96v-2.65c0-9.23-2.43-16.65-7.28-22.27-4.08-4.72-9.39-7.52-15.9-8.42-.05,0-.1-.01-.15-.01h-46.16c-.53,0-.96.43-.96.96v85.67c0,.53.43.96.96.96h34.01c6.53-.2,11.92-2.76,16.16-7.68,4.24-4.91,6.36-11.09,6.36-18.51v-1.15c0-.53.43-.96.96-.96h.73c.53,0,.96.43.96.96v67.31c0,.53-.43.96-.96.96h-.73c-.53,0-.96-.43-.96-.96v-1.45c0-7.42-2.12-13.54-6.36-18.36-4.24-4.82-9.63-7.32-16.16-7.52h-34.01c-.53,0-.96.43-.96.96v82.66c0,.53.43.96.96.96h33.74c8.83,0,16.6-1.96,23.31-5.87,6.71-3.91,12.45-9.53,17.22-16.85,4.66-7.15,8.39-15.6,11.19-25.34.12-.41.49-.69.92-.69h.76Z"/>
  </g>
</svg>
