<?xml version="1.0" encoding="UTF-8"?>
<svg id="Layer_2" data-name="Layer 2" xmlns="http://www.w3.org/2000/svg" viewBox="0 0 1035.91 568.11">
  <defs>
    <style>
      .cls-1 {
        fill: #e5b357;
      }
    </style>
  </defs>
  <g id="EchoesOfSoleraLogo">
    <g id="word-solera">
      <path id="letter-s-01_" data-name="letter-s-01
" class="cls-1" d="M125.89,461.29c-.87,19.39-7.4,34.47-19.58,45.25-12.19,10.78-28.72,16.17-49.61,16.17-7.66,0-15.11-.74-22.33-2.23-7.23-1.48-13.62-3.56-19.19-6.23-5.49-2.63-9.88-5.79-13.17-9.48-.1-.11-.17-.24-.21-.38-1.35-4.31-1.93-9.48-1.76-15.52.17-6.13,1-12.36,2.48-18.69,1.42-6.07,3.2-11.15,5.34-15.22.17-.32.5-.51.85-.51h.76c.55,0,.98.46.95,1.01-.52,9.7,1.11,18.71,4.89,27.03s9.66,15.43,17.24,20.48c7.57,5.04,16.58,7.47,27.03,7.27,11.49-.19,20.37-3.51,26.64-9.94,6.27-6.43,9.4-14.19,9.4-23.29,0-6.13-1.61-11.67-4.83-16.62-3.22-4.94-8.47-9.68-15.77-14.22-.02-.01-.04-.03-.06-.04l-45.65-34.38s-.03-.02-.05-.03c-9.22-5.93-15.91-13.54-20.08-22.83-4.18-9.3-5.83-19.39-4.96-30.27.87-10.28,3.57-19.33,8.1-27.15,4.52-7.81,10.75-13.9,18.67-18.25,7.92-4.35,17.36-6.53,28.33-6.53,3.48,0,7.79.2,12.93.59,5.13.4,10.44.94,15.93,1.63,1.93.24,3.77.49,5.53.73.04,0,.09,0,.13,0h16.41c.56,0,1,.48.96,1.04l-.21,2.51s.03.01.04.02l-3.06,39.18c-.04.5-.46.88-.96.88h-.78c-.52,0-.94-.42-.95-.95-.2-9.85-3.55-17.79-10.04-23.83-6.7-6.23-15.63-9.35-26.77-9.35-10.1,0-18.24,2.77-24.42,8.31-6.18,5.54-9.44,12.27-9.79,20.18-.18,5.93,1.48,11.08,4.96,15.43,3.48,4.35,7.92,8.41,13.32,12.17l49.88,36.8c8,5.15,14.06,11.87,18.15,20.18,4.09,8.31,5.88,18,5.35,29.08Z"/>
      <path id="letter-o-02_" data-name="letter-o-02
" class="cls-1" d="M356.04,433.82c0,13.29-2.19,25.32-6.58,36.08-4.39,10.76-10.62,20.02-18.7,27.77-8.08,7.76-17.65,13.73-28.72,17.92-11.07,4.19-23.29,6.29-36.66,6.29s-25.84-2.06-36.98-6.17c-11.14-4.11-20.79-10.09-28.93-17.92-8.15-7.83-14.42-17.13-18.8-27.89-4.39-10.76-6.58-22.71-6.58-35.85s2.26-25.36,6.79-36.2c4.52-10.84,10.86-20.14,19.01-27.89,7.97-7.58,17.3-13.05,27.99-16.39.43-.13.89.05,1.12.43l.49.84c.22.37.16.84-.15,1.15-4.64,4.68-8.51,10.72-11.6,18.12-3.21,7.68-5.57,16.14-7.1,25.4-1.53,9.26-2.3,18.72-2.3,28.37,0,17.25,2.4,32.17,7.21,44.75,4.81,12.58,11.49,22.28,20.05,29.08,8.56,6.81,18.42,10.21,29.56,10.21s20.92-3.21,29.35-9.61c8.42-6.41,15.04-15.51,19.85-27.3,4.8-11.79,7.21-25.6,7.21-41.42,0-10.6-1.12-20.53-3.34-29.79-2.23-9.26-5.43-17.33-9.61-24.21-4.18-6.89-9.37-12.14-15.56-15.79-6.2-3.64-13.2-5.22-20.99-4.75-6.83.48-12.61,2.37-17.34,5.7-4.74,3.32-8.46,7.56-11.18,12.7-2.72,5.14-4.42,10.76-5.12,16.85-.66,5.74-.39,11.45.81,17.12.12.56-.26,1.09-.83,1.15l-.51.05c-.43.04-.85-.2-1-.61-2.33-5.97-3.49-12.27-3.49-18.9s1.39-13.49,4.18-19.82c2.78-6.33,7.03-11.67,12.74-16.02,5.71-4.35,13.02-7.08,21.93-8.19,7.52-.95,15.18-.47,22.98,1.42,7.8,1.9,15.32,5.1,22.56,9.61,7.24,4.51,13.75,10.29,19.53,17.33,5.78,7.04,10.34,15.27,13.68,24.69,3.34,9.42,5.01,19.98,5.01,31.69Z"/>
      <path id="letter-l-03_" data-name="letter-l-03
" class="cls-1" d="M498.52,474.88c.6,0,1.05.54.94,1.13l-7.94,42.54h-97.43c-.53,0-.96-.43-.96-.96v-.46c0-.53.43-.96.96-.96h1.76c3.06,0,5.67-1.22,7.83-3.68,2.16-2.45,3.31-5.42,3.45-8.9v-112.52c-.14-3.64-1.33-6.65-3.55-9.02-2.23-2.37-4.88-3.56-7.94-3.56h-1.55c-.53,0-.96-.43-.96-.96v-.46c0-.53.43-.96.96-.96h56.16c.53,0,.96.43.96.96v.46c0,.53-.43.96-.96.96h-1.55c-3.06,0-5.71,1.19-7.94,3.56-2.23,2.37-3.41,5.38-3.55,9.02v117.02c0,.53.43.96.96.96h23.69c5.99,0,11.31-1.38,15.98-4.15,4.66-2.77,8.67-6.72,12.01-11.87,3.23-4.97,5.74-10.78,7.54-17.45.11-.42.49-.71.92-.71h.2Z"/>
      <path id="letter-e-04_" data-name="letter-e-04
" class="cls-1" d="M635.05,474.88c.6,0,1.05.54.94,1.13l-7.73,42.55h-97.43c-.53,0-.96-.43-.96-.96v-.46c0-.53.43-.96.96-.96h1.76c3.06,0,5.67-1.22,7.83-3.68,2.16-2.45,3.31-5.42,3.45-8.9v-112.52c-.14-3.64-1.29-6.65-3.45-9.02-2.16-2.37-4.77-3.56-7.83-3.56h-1.76c-.53,0-.96-.43-.96-.96v-.46c0-.53.43-.96.96-.96h72.37c4.04,0,8.29-.43,12.74-1.31,3.52-.69,6.18-1.3,7.96-1.84.62-.19,1.23.27,1.23.92v35.45c0,.53-.43.96-.96.96h-.17c-.53,0-.96-.43-.96-.96v-1.18c0-6.96-1.64-12.42-4.91-16.38-3.27-3.95-7.97-6.01-14.1-6.17h-29.12c-.53,0-.96.43-.96.96v55.77c0,.53.43.96.96.96h22.86c4.87-.16,8.74-2.02,11.59-5.58,2.85-3.56,4.28-7.95,4.28-13.18v-.7c0-.53.43-.96.96-.96h.17c.53,0,.96.43.96.96v48.41c0,.53-.43.96-.96.96h-.17c-.53,0-.96-.43-.96-.96v-.94c0-5.22-1.43-9.57-4.28-13.06-2.86-3.48-6.72-5.3-11.59-5.46h-22.86c-.53,0-.96.43-.96.96v54.34c0,.53.43.96.96.96h23.69c5.99,0,11.31-1.38,15.98-4.15,4.66-2.77,8.67-6.72,12.01-11.87,3.23-4.97,5.74-10.78,7.54-17.45.11-.42.49-.71.92-.71h0Z"/>
      <path id="letter-r-05" class="cls-1" d="M1033.9,515.71c-3.86,0-7.8-1.38-11.82-4.14-3.18-2.18-5.98-5.54-8.43-10.04-.03-.05-.06-.11-.08-.16l-75.65-187.71c-.21-.53-.72-.87-1.29-.87h0c-.73,0-1.32.55-1.39,1.27-.18,1.95-.75,4.43-1.7,7.44-1.17,3.72-2.48,7.57-3.9,11.58-1.43,4-2.77,7.57-4.02,10.72-1.26,3.14-2.14,5.29-2.64,6.43l-64.4,165.59c-.36.91.32,1.9,1.3,1.9h15.35c.58,0,1.11-.37,1.31-.91l19.56-53.33c.2-.55.72-.91,1.31-.91h57.07c.59,0,1.12.37,1.32.93l12.02,34.22h-.06c2.01,5.72,1.76,10.15-.75,13.29-2.51,3.14-5.45,4.72-8.8,4.72h-.87c-.77,0-1.39.62-1.39,1.39v.07c0,.77.62,1.39,1.39,1.39h77.19c.77,0,1.39-.62,1.39-1.39v-.07c0-.77-.62-1.39-1.39-1.39h-.62ZM901.52,448.67l23.72-64.68c.45-1.23,2.19-1.22,2.62.02l22.72,64.68c.32.91-.35,1.86-1.32,1.86h-46.45c-.97,0-1.64-.96-1.31-1.87Z"/>
      <path id="letter-a-06" class="cls-1" d="M890.24,556.53c.52.01.94.43.94.95v.87c0,.35-.19.68-.49.85-4.34,2.41-9.26,4.41-14.76,6.01-5.71,1.66-11.77,2.61-18.17,2.85-6.41.24-13.06-.44-19.95-2.02-6.89-1.58-13.79-4.39-20.68-8.43-6.89-4.04-13.68-9.54-20.37-16.5-6.68-6.97-13.02-15.59-19.01-25.88-2.23-3.48-4.7-7.51-7.42-12.11-2.72-4.59-5.5-9.34-8.36-14.24-2.86-4.9-5.64-9.73-8.36-14.48-2.72-4.75-5.26-9.1-7.62-13.06-2.36-3.94-4.38-7.18-6.05-9.71,0-.01-.02-.03-.03-.04-2.08-3.63-4.06-6.79-5.94-9.47-1.69-2.42-3.41-3.94-5.15-4.57-.36-.13-.59-.5-.59-.88v-.71c0-.53.43-.96.96-.96h5.52c2.51,0,5.29-.43,8.36-1.31,3.06-.87,6.09-2.29,9.09-4.27,2.99-1.98,5.64-4.78,7.94-8.43,2.3-3.64,3.86-8.15,4.7-13.53.28-1.1.52-2.61.73-4.51.21-1.9.24-4.19.1-6.88-.28-7.12-1.71-13.13-4.28-18.04-2.58-4.9-5.99-8.66-10.24-11.28-4.25-2.61-8.88-3.92-13.89-3.92h-14.92c-.53,0-.96.43-.96.96v137.44c0,4.12,1.32,7.64,3.97,10.56,2.64,2.93,5.78,4.39,9.4,4.39h1.55c.53,0,.96.43.96.96v.46c0,.53-.43.96-.96.96h-61.38c-.53,0-.96-.43-.96-.96v-.46c0-.53.43-.96.96-.96h1.76c3.48,0,6.54-1.42,9.19-4.27,2.64-2.85,4.04-6.41,4.18-10.68v-131.51c-.14-4.11-1.5-7.63-4.07-10.56-2.58-2.93-5.68-4.39-9.3-4.39h-1.76c-.53,0-.96-.43-.96-.96v-.46c0-.53.43-.96.96-.96h70.69c6.27,0,12.53.75,18.8,2.26,6.27,1.51,12.01,3.92,17.23,7.24,5.22,3.32,9.43,7.83,12.64,13.53,3.2,5.7,4.8,12.74,4.8,21.13,0,9.34-1.85,17.53-5.54,24.57-3.69,7.04-8.56,12.43-14.62,16.14-5.12,3.14-10.66,4.79-16.62,4.94-.93.02-1.26,1.22-.49,1.74,5.14,3.46,9.84,7.61,14.08,12.43,5.01,5.7,9.96,12.19,14.83,19.47,4.87,7.28,10.37,15.19,16.5,23.74,7.66,11.24,15.56,21.09,23.71,29.55,8.15,8.46,17.13,15.11,26.95,19.94,9.57,4.7,20.36,7.19,32.38,7.46Z"/>
    </g>
    <path id="divider-left_" data-name="divider-left
" class="cls-1" d="M390.25,264.09s-12.94.82-21.64,9.51c0,0-1.69-7.09-9.04-7.09-4.16,0-4.16,2.05-4.16,2.05l-232.36-2.62-1.82,1.19-57.15-3.04,57.15-3.04,1.82,1.19,232.36-2.62s0,2.05,4.16,2.05c7.35,0,9.04-7.09,9.04-7.09,8.69,8.69,21.64,9.51,21.64,9.51Z"/>
    <g id="word-of_" data-name="word-of
">
      <path id="letter-o-01_" data-name="letter-o-01
" class="cls-1" d="M519.79,241.65c-4.06-6.77-9.78-12.02-17.18-15.74-7.4-3.72-16.12-5.58-26.15-5.58s-18.75,1.86-26.15,5.58c-7.4,3.72-13.11,8.99-17.12,15.8-4.01,6.82-6.02,14.91-6.02,24.27s2.01,17.56,6.02,24.33c4.01,6.77,9.72,12.02,17.12,15.74,7.4,3.72,16.12,5.58,26.15,5.58s18.75-1.86,26.15-5.58c7.4-3.72,13.13-8.99,17.18-15.8,4.05-6.81,6.08-14.9,6.08-24.27s-2.03-17.56-6.08-24.33ZM501.66,287.43c-2.34,6.02-5.64,10.68-9.91,13.98-4.26,3.3-9.37,4.95-15.3,4.95s-10.93-1.65-15.24-4.95c-4.31-3.3-7.63-7.96-9.97-13.98-2.34-6.02-3.51-13.17-3.51-21.45s1.17-15.43,3.51-21.45c2.34-6.02,5.66-10.68,9.97-13.98,4.31-3.3,9.38-4.95,15.24-4.95s11.04,1.65,15.3,4.95c4.26,3.3,7.57,7.96,9.91,13.98,2.34,6.02,3.51,13.17,3.51,21.45s-1.17,15.43-3.51,21.45Z"/>
      <path id="letter-f-02_" data-name="letter-f-02
" class="cls-1" d="M598.64,220.26c.62-.18,1.24.28,1.24.92v19.85h-1.25v-1.25c0-3.76-1.11-6.75-3.32-8.97-2.22-2.21-5.21-3.32-8.97-3.32h-20.11c-.53,0-.96.43-.96.96v34.58c0,.53.43.96.96.96h15.6c3.09-.08,5.64-1.15,7.65-3.2,2.01-2.05,3.01-4.62,3.01-7.71v-.88h1.25v28.85h-1.25v-1c0-3.09-1-5.64-3.01-7.65-2.01-2.01-4.56-3.05-7.65-3.14h-15.6c-.53,0-.96.43-.96.96v30.52c.08,2.18.9,4.04,2.45,5.58,1.55,1.55,3.41,2.32,5.58,2.32h1.63v1.25h-38.13v-1.25h1.63c2.17,0,4.03-.77,5.58-2.32,1.55-1.55,2.36-3.41,2.45-5.58v-69.48c-.08-2.17-.9-4.03-2.45-5.58-1.55-1.55-3.41-2.32-5.58-2.32h-1.63v-1.25h47.79c1.84,0,3.78-.13,5.83-.38,2.05-.25,3.95-.54,5.71-.88,1.01-.19,1.85-.38,2.53-.58Z"/>
    </g>
    <path id="divider-right_" data-name="divider-right
" class="cls-1" d="M639.71,264.09s12.94-.82,21.64-9.51c0,0,1.69,7.09,9.04,7.09,4.16,0,4.16-2.05,4.16-2.05l232.36,2.62,1.82-1.19,57.15,3.04-57.15,3.04-1.82-1.19-232.36,2.62s0-2.05-4.16-2.05c-7.35,0-9.04,7.09-9.04,7.09-8.69-8.69-21.64-9.51-21.64-9.51Z"/>
    <g id="word-echoes">
      <path id="letter-e-01_" data-name="letter-e-01
" class="cls-1" d="M148.22,153.91c.6,0,1.06.55.94,1.14l-11.96,60.56H.96C.43,215.62,0,215.19,0,214.66v-1.09c0-.53.43-.96.96-.96h2.48c4.59,0,8.52-1.85,11.79-5.57,3.27-3.71,4.99-8.18,5.17-13.4V26.89c-.18-5.22-1.9-9.68-5.17-13.39-3.27-3.71-7.2-5.57-11.79-5.57H.96C.43,7.93,0,7.5,0,6.97v-1.09C0,5.35.43,4.92.96,4.92h99.96c3.88,0,7.99-.3,12.32-.9,4.32-.6,8.34-1.3,12.05-2.11,2.84-.61,5.06-1.23,6.66-1.84.62-.24,1.29.23,1.29.9v3.95s0,3.31,0,3.31v42.99c0,.53-.43.96-.96.96h-.73c-.53,0-.96-.43-.96-.96v-2.65c0-9.23-2.43-16.65-7.28-22.27-4.08-4.72-9.39-7.52-15.9-8.42-.05,0-.1-.01-.15-.01h-46.16c-.53,0-.96.43-.96.96v85.67c0,.53.43.96.96.96h34.01c6.53-.2,11.92-2.76,16.16-7.68,4.24-4.91,6.36-11.09,6.36-18.51v-1.15c0-.53.43-.96.96-.96h.73c.53,0,.96.43.96.96v67.31c0,.53-.43.96-.96.96h-.73c-.53,0-.96-.43-.96-.96v-1.45c0-7.42-2.12-13.54-6.36-18.36-4.24-4.82-9.63-7.32-16.16-7.52h-34.01c-.53,0-.96.43-.96.96v82.66c0,.53.43.96.96.96h33.74c8.83,0,16.6-1.96,23.31-5.87,6.71-3.91,12.45-9.53,17.22-16.85,4.66-7.15,8.39-15.6,11.19-25.34.12-.41.49-.69.92-.69h.76Z"/>
      <path id="letter-c-02_" data-name="letter-c-02
" class="cls-1" d="M323.87,103.21l1.85,40.26c0,.18-.03.35-.11.51-3.1,5.85-7.22,11.14-12.38,15.9-5.23,4.81-11.73,8.71-19.5,11.68-7.77,2.97-16.95,4.46-27.55,4.46-17.24-.16-32.32-3.73-45.24-10.72-12.93-6.98-22.92-16.98-29.98-29.98-7.07-13-10.6-28.73-10.6-47.2s3.46-33.51,10.38-46.59c6.92-13.08,16.85-23.15,29.77-30.22,12.93-7.06,28.36-10.6,46.3-10.6,11.3,0,21.44,1.29,30.41,3.85,8.74,2.5,16.11,5.54,22.1,9.11.29.17.46.49.47.82l.2,39.69c0,.52-.42.94-.93.94h-.24c-.43,0-.8-.3-.9-.71-3.83-15.52-9.99-26.64-18.47-33.36-8.62-6.82-18.72-10.23-30.3-10.23s-20.98,3.13-29.03,9.39-14.27,15.09-18.65,26.49c-4.38,11.4-6.57,25.04-6.57,40.94s2.08,29.62,6.25,41.18c4.17,11.56,10.1,20.55,17.8,26.97,7.7,6.42,16.77,9.79,27.23,10.11,10.88,0,20.06-2.01,27.55-6.02,7.49-4.01,13.53-10.67,18.12-19.99,4.51-9.15,7.9-21.4,10.16-36.76.07-.46.46-.8.92-.8h0c.5,0,.91.39.93.89Z"/>
      <path id="letter-h-03_" data-name="letter-h-03
" class="cls-1" d="M504.58,18.28v133.4c.14,4.18,1.52,7.75,4.13,10.72,2.61,2.97,5.75,4.45,9.43,4.45h1.8c.53,0,.96.43.96.96v.49c0,.53-.43.96-.96.96h-15.36s-.64,0-.64,0h-46.51c-.53,0-.96-.43-.96-.96v-.49c0-.53.43-.96.96-.96h1.8c3.67,0,6.85-1.48,9.54-4.45,2.68-2.97,4.03-6.54,4.03-10.72v-60.2c0-.53-.43-.96-.96-.96h-66.74c-.53,0-.96.43-.96.96v60.2c.14,4.18,1.52,7.75,4.13,10.72,2.61,2.97,5.75,4.45,9.43,4.45h1.8c.53,0,.96.43.96.96v.49c0,.53-.43.96-.96.96h-62.5c-.53,0-.96-.43-.96-.96v-.49c0-.53.43-.96.96-.96h1.8c3.67,0,6.81-1.48,9.43-4.45,2.61-2.97,3.99-6.54,4.13-10.72V18.28c-.14-4.17-1.52-7.74-4.13-10.72-2.62-2.97-5.76-4.45-9.43-4.45h-1.8c-.53,0-.96-.43-.96-.96v-.49c0-.53.43-.96.96-.96h62.5c.53,0,.96.43.96.96v.49c0,.53-.43.96-.96.96h-1.8c-3.68,0-6.82,1.49-9.43,4.45-2.62,2.97-3.99,6.54-4.13,10.72v60.93c0,.53.43.96.96.96h66.74c.53,0,.96-.43.96-.96V18.28c0-4.17-1.34-7.74-4.03-10.72-2.68-2.97-5.86-4.45-9.54-4.45h-1.8c-.53,0-.96-.43-.96-.96v-.49c0-.53.43-.96.96-.96h62.5c.53,0,.96.43.96.96v.49c0,.53-.43.96-.96.96h-1.8c-3.68,0-6.82,1.49-9.43,4.45-2.62,2.97-3.99,6.54-4.13,10.72Z"/>
      <path id="letter-o-04_" data-name="letter-o-04
" class="cls-1" d="M730.68,87.15c0,13.48-2.23,25.69-6.67,36.6-4.45,10.92-10.77,20.31-18.97,28.17-8.2,7.87-17.91,13.93-29.14,18.18-11.23,4.25-23.63,6.38-37.19,6.38s-26.21-2.09-37.51-6.26c-11.3-4.17-21.08-10.24-29.35-18.18-8.26-7.95-14.62-17.37-19.07-28.29-4.45-10.92-6.68-23.03-6.68-36.36s2.29-25.72,6.89-36.72c4.59-10.99,11.02-20.43,19.28-28.29,8.08-7.69,17.55-13.24,28.4-16.63.43-.13.89.05,1.12.43l.51.87c.22.37.16.84-.15,1.15-4.71,4.75-8.64,10.88-11.77,18.39-3.25,7.79-5.65,16.37-7.2,25.76-1.56,9.39-2.33,18.98-2.33,28.77,0,17.5,2.44,32.63,7.31,45.39,4.87,12.76,11.65,22.6,20.34,29.5,8.69,6.9,18.68,10.35,29.98,10.35s21.22-3.25,29.77-9.75c8.55-6.5,15.26-15.73,20.13-27.69,4.87-11.96,7.31-25.96,7.31-42.02,0-10.75-1.13-20.83-3.39-30.22-2.26-9.39-5.51-17.58-9.75-24.56-4.24-6.98-9.5-12.32-15.79-16.01-6.29-3.69-13.39-5.3-21.3-4.81-6.92.48-12.79,2.41-17.59,5.78-4.8,3.37-8.58,7.67-11.34,12.88-2.75,5.22-4.49,10.92-5.19,17.1-.67,5.83-.39,11.62.83,17.38.12.56-.26,1.09-.83,1.15l-.54.06c-.43.04-.85-.2-1-.61-2.36-6.06-3.54-12.45-3.54-19.18s1.41-13.68,4.24-20.11c2.82-6.42,7.13-11.84,12.93-16.25,5.79-4.41,13.21-7.18,22.25-8.31,7.63-.96,15.4-.48,23.31,1.44,7.91,1.93,15.54,5.18,22.89,9.75,7.34,4.58,13.95,10.44,19.81,17.58,5.86,7.14,10.49,15.49,13.88,25.04,3.39,9.55,5.09,20.27,5.09,32.15Z"/>
      <path id="letter-e-05_" data-name="letter-e-05
" class="cls-1" d="M874.03,124.23c.6,0,1.06.55.94,1.14l-9.52,48.22h-108.81c-.53,0-.96-.43-.96-.96v-.49c0-.53.43-.96.96-.96h1.8c3.67,0,6.81-1.48,9.43-4.45,2.61-2.97,3.99-6.54,4.13-10.72V22.62c-.14-4.17-1.52-7.74-4.13-10.72-2.62-2.97-5.76-4.45-9.43-4.45h-1.8c-.53,0-.96-.43-.96-.96v-.49c0-.53.43-.96.96-.96h79.78c3.11,0,6.39-.24,9.85-.72,3.46-.48,6.68-1.04,9.64-1.69,2.13-.46,3.83-.92,5.08-1.38.62-.23,1.27.24,1.27.9v39.73c0,.53-.43.96-.96.96h-.2c-.53,0-.96-.43-.96-.96v-1.93c0-7.38-1.94-13.32-5.83-17.82-3.28-3.79-7.55-6.03-12.79-6.73-.05,0-.1-.01-.15-.01h-36.64c-.53,0-.96.43-.96.96v68.15c0,.53.43.96.96.96h27.01c5.22-.16,9.54-2.2,12.93-6.14,3.39-3.93,5.09-8.87,5.09-14.81v-.73c0-.53.43-.96.96-.96h.2c.53,0,.96.43.96.96v53.47c0,.53-.43.96-.96.96h-.2c-.53,0-.96-.43-.96-.96v-.97c0-5.94-1.7-10.84-5.09-14.69s-7.7-5.86-12.93-6.02h-27.01c-.53,0-.96.43-.96.96v65.75c0,.53.43.96.96.96h26.8c7.06,0,13.28-1.56,18.65-4.7,5.37-3.13,9.96-7.62,13.77-13.48,3.7-5.69,6.67-12.4,8.91-20.13.12-.41.49-.69.92-.69h.23Z"/>
      <path id="letter-s-06_" data-name="letter-s-06
" class="cls-1" d="M1033.27,157.52c-.89,19.67-7.51,34.97-19.87,45.9-12.36,10.94-29.14,16.41-50.33,16.41-7.77,0-15.32-.75-22.65-2.26-7.33-1.5-13.82-3.61-19.47-6.32-5.57-2.67-10.02-5.87-13.36-9.62-.1-.11-.17-.24-.21-.38-1.37-4.37-1.96-9.62-1.79-15.74.17-6.22,1.01-12.54,2.52-18.96,1.44-6.16,3.25-11.31,5.42-15.44.17-.32.5-.51.85-.51h.79c.55,0,.98.46.95,1.01-.53,9.85,1.12,18.99,4.96,27.43,3.97,8.73,9.8,15.65,17.48,20.77,7.68,5.12,16.82,7.58,27.41,7.37,11.65-.2,20.66-3.56,27.02-10.08,6.36-6.52,9.54-14.4,9.54-23.63,0-6.22-1.64-11.84-4.9-16.85-3.26-5.01-8.59-9.82-15.99-14.43-.02-.01-.04-.03-.06-.04l-46.3-34.88s-.03-.02-.05-.03c-9.35-6.02-16.14-13.74-20.37-23.16-4.24-9.43-5.92-19.66-5.03-30.7.88-10.43,3.62-19.61,8.21-27.54,4.59-7.92,10.9-14.09,18.94-18.51,8.03-4.41,17.61-6.62,28.74-6.62,3.53,0,7.9.2,13.11.6,5.21.4,10.59.95,16.16,1.66,1.96.25,3.83.5,5.61.74.04,0,.09,0,.13,0h16.66c.56,0,1,.48.96,1.04l-.21,2.56s.03.01.04.02l-3.11,39.75c-.04.5-.46.88-.96.88h-.82c-.52,0-.94-.42-.95-.95-.2-9.99-3.6-18.06-10.19-24.19-6.8-6.32-15.85-9.48-27.15-9.48-10.24,0-18.5,2.81-24.77,8.43-6.27,5.62-9.58,12.44-9.93,20.47-.18,6.02,1.5,11.24,5.03,15.65,3.53,4.42,8.03,8.53,13.51,12.34l50.59,37.32c8.12,5.22,14.26,12.04,18.41,20.47,4.15,8.43,5.96,18.26,5.43,29.5Z"/>
    </g>
  </g>
</svg>